<mxfile host="app.diagrams.net" agent="Mozilla/5.0 (Macintosh; Intel Mac OS X 10_15_7) AppleWebKit/537.36 (KHTML, like Gecko) Chrome/124.0.0.0 Safari/537.36" version="26.1.3">
  <diagram name="第 1 页" id="RIrgb-9weH6ln5AiGYGI">
    <mxGraphModel dx="2261" dy="786" grid="1" gridSize="10" guides="1" tooltips="1" connect="1" arrows="1" fold="1" page="1" pageScale="1" pageWidth="827" pageHeight="1169" math="0" shadow="0">
      <root>
        <mxCell id="0" />
        <mxCell id="1" parent="0" />
        <mxCell id="xrPU2MdsnwFTcZi8wqbZ-2" value="&lt;span data-copy-origin=&quot;https://shimo.zuoyebang.cc&quot; data-docs-delta=&quot;[[20,&amp;quot;client-openapi&amp;quot;,&amp;quot;inline-dir:\&amp;quot;ltr\&amp;quot;&amp;quot;]]&quot;&gt;&lt;p style=&quot;line-height: 100%;margin-bottom: 0pt;margin-top: 0pt;text-align: left;font-size: 11pt;color: #494949;&quot; class=&quot;ql-align-left ql-direction-ltr&quot; align=&quot;left&quot;&gt;&lt;span class=&quot;ql-author-10000003088&quot;&gt;client&lt;/span&gt;&lt;span class=&quot;ql-author-10000000992&quot;&gt;-openapi&lt;/span&gt;&lt;/p&gt;&lt;/span&gt;" style="rounded=1;whiteSpace=wrap;html=1;fillColor=#dae8fc;strokeColor=#6c8ebf;" vertex="1" parent="1">
          <mxGeometry x="40" y="605" width="120" height="60" as="geometry" />
        </mxCell>
        <mxCell id="xrPU2MdsnwFTcZi8wqbZ-3" value="&lt;span data-copy-origin=&quot;https://shimo.zuoyebang.cc&quot; data-docs-delta=&quot;[[20,&amp;quot;client-other&amp;quot;,&amp;quot;inline-dir:\&amp;quot;ltr\&amp;quot;&amp;quot;]]&quot;&gt;&lt;p style=&quot;line-height: 100%;margin-bottom: 0pt;margin-top: 0pt;font-size: 11pt;color: #494949;&quot; class=&quot;ql-direction-ltr&quot;&gt;&lt;span class=&quot;ql-author-10000000992&quot;&gt;client-other&lt;/span&gt;&lt;/p&gt;&lt;/span&gt;" style="rounded=1;whiteSpace=wrap;html=1;fillColor=#dae8fc;strokeColor=#6c8ebf;" vertex="1" parent="1">
          <mxGeometry x="630" y="610" width="120" height="60" as="geometry" />
        </mxCell>
        <mxCell id="xrPU2MdsnwFTcZi8wqbZ-5" value="&lt;span data-copy-origin=&quot;https://shimo.zuoyebang.cc&quot; data-docs-delta=&quot;[[20,&amp;quot;query-only&amp;quot;]]&quot;&gt;&lt;p style=&quot;line-height: 100%;margin-bottom: 0pt;margin-top: 0pt;text-align: left;font-size: 11pt;color: #494949;&quot; class=&quot;ql-align-left&quot; align=&quot;left&quot;&gt;&lt;span class=&quot;ql-author-10000003088&quot;&gt;query-only&lt;/span&gt;&lt;/p&gt;&lt;/span&gt;" style="rounded=1;whiteSpace=wrap;html=1;fillColor=#dae8fc;strokeColor=#6c8ebf;" vertex="1" parent="1">
          <mxGeometry x="1100" y="610" width="120" height="60" as="geometry" />
        </mxCell>
        <mxCell id="xrPU2MdsnwFTcZi8wqbZ-25" style="edgeStyle=orthogonalEdgeStyle;rounded=0;orthogonalLoop=1;jettySize=auto;html=1;exitX=1;exitY=0.5;exitDx=0;exitDy=0;entryX=0;entryY=0.5;entryDx=0;entryDy=0;" edge="1" parent="1" source="xrPU2MdsnwFTcZi8wqbZ-6" target="xrPU2MdsnwFTcZi8wqbZ-2">
          <mxGeometry relative="1" as="geometry" />
        </mxCell>
        <mxCell id="xrPU2MdsnwFTcZi8wqbZ-6" value="&lt;span data-copy-origin=&quot;https://shimo.zuoyebang.cc&quot; data-docs-delta=&quot;[[20,&amp;quot;client-openapi&amp;quot;,&amp;quot;inline-dir:\&amp;quot;ltr\&amp;quot;&amp;quot;]]&quot;&gt;&lt;p style=&quot;line-height: 100%;margin-bottom: 0pt;margin-top: 0pt;text-align: left;font-size: 11pt;color: #494949;&quot; class=&quot;ql-align-left ql-direction-ltr&quot; align=&quot;left&quot;&gt;&lt;span class=&quot;ql-author-10000003088&quot;&gt;client&lt;/span&gt;&lt;span class=&quot;ql-author-10000000992&quot;&gt;-openapi&lt;/span&gt;&lt;/p&gt;&lt;/span&gt;" style="rounded=1;whiteSpace=wrap;html=1;fillColor=#d5e8d4;strokeColor=#82b366;" vertex="1" parent="1">
          <mxGeometry x="-100" y="605" width="120" height="60" as="geometry" />
        </mxCell>
        <mxCell id="xrPU2MdsnwFTcZi8wqbZ-24" style="edgeStyle=orthogonalEdgeStyle;rounded=0;orthogonalLoop=1;jettySize=auto;html=1;exitX=1;exitY=0.5;exitDx=0;exitDy=0;entryX=0;entryY=0.5;entryDx=0;entryDy=0;" edge="1" parent="1" source="xrPU2MdsnwFTcZi8wqbZ-7" target="xrPU2MdsnwFTcZi8wqbZ-3">
          <mxGeometry relative="1" as="geometry" />
        </mxCell>
        <mxCell id="xrPU2MdsnwFTcZi8wqbZ-7" value="&lt;span data-copy-origin=&quot;https://shimo.zuoyebang.cc&quot; data-docs-delta=&quot;[[20,&amp;quot;client-other&amp;quot;,&amp;quot;inline-dir:\&amp;quot;ltr\&amp;quot;&amp;quot;]]&quot;&gt;&lt;p style=&quot;line-height: 100%;margin-bottom: 0pt;margin-top: 0pt;font-size: 11pt;color: #494949;&quot; class=&quot;ql-direction-ltr&quot;&gt;&lt;span class=&quot;ql-author-10000000992&quot;&gt;client-other&lt;/span&gt;&lt;/p&gt;&lt;/span&gt;" style="rounded=1;whiteSpace=wrap;html=1;fillColor=#d5e8d4;strokeColor=#82b366;" vertex="1" parent="1">
          <mxGeometry x="490" y="610" width="120" height="60" as="geometry" />
        </mxCell>
        <mxCell id="xrPU2MdsnwFTcZi8wqbZ-23" style="edgeStyle=orthogonalEdgeStyle;rounded=0;orthogonalLoop=1;jettySize=auto;html=1;exitX=1;exitY=0.5;exitDx=0;exitDy=0;entryX=0;entryY=0.5;entryDx=0;entryDy=0;" edge="1" parent="1" source="xrPU2MdsnwFTcZi8wqbZ-8" target="xrPU2MdsnwFTcZi8wqbZ-5">
          <mxGeometry relative="1" as="geometry" />
        </mxCell>
        <mxCell id="xrPU2MdsnwFTcZi8wqbZ-8" value="&lt;span data-copy-origin=&quot;https://shimo.zuoyebang.cc&quot; data-docs-delta=&quot;[[20,&amp;quot;query-only&amp;quot;]]&quot;&gt;&lt;p style=&quot;line-height: 100%;margin-bottom: 0pt;margin-top: 0pt;text-align: left;font-size: 11pt;color: #494949;&quot; class=&quot;ql-align-left&quot; align=&quot;left&quot;&gt;&lt;span class=&quot;ql-author-10000003088&quot;&gt;query-only&lt;/span&gt;&lt;/p&gt;&lt;/span&gt;" style="rounded=1;whiteSpace=wrap;html=1;fillColor=#d5e8d4;strokeColor=#82b366;" vertex="1" parent="1">
          <mxGeometry x="950" y="610" width="120" height="60" as="geometry" />
        </mxCell>
        <mxCell id="xrPU2MdsnwFTcZi8wqbZ-16" style="edgeStyle=orthogonalEdgeStyle;rounded=0;orthogonalLoop=1;jettySize=auto;html=1;exitX=0.5;exitY=1;exitDx=0;exitDy=0;" edge="1" parent="1" source="xrPU2MdsnwFTcZi8wqbZ-9" target="xrPU2MdsnwFTcZi8wqbZ-13">
          <mxGeometry relative="1" as="geometry" />
        </mxCell>
        <mxCell id="xrPU2MdsnwFTcZi8wqbZ-9" value="即席查询" style="rounded=1;whiteSpace=wrap;html=1;" vertex="1" parent="1">
          <mxGeometry x="1290" y="320" width="120" height="60" as="geometry" />
        </mxCell>
        <mxCell id="xrPU2MdsnwFTcZi8wqbZ-17" style="edgeStyle=orthogonalEdgeStyle;rounded=0;orthogonalLoop=1;jettySize=auto;html=1;exitX=0.5;exitY=1;exitDx=0;exitDy=0;entryX=0.5;entryY=0;entryDx=0;entryDy=0;" edge="1" parent="1" source="xrPU2MdsnwFTcZi8wqbZ-10" target="xrPU2MdsnwFTcZi8wqbZ-6">
          <mxGeometry relative="1" as="geometry" />
        </mxCell>
        <mxCell id="xrPU2MdsnwFTcZi8wqbZ-10" value="元数据服务" style="rounded=1;whiteSpace=wrap;html=1;" vertex="1" parent="1">
          <mxGeometry x="-265" y="315" width="120" height="60" as="geometry" />
        </mxCell>
        <mxCell id="xrPU2MdsnwFTcZi8wqbZ-18" style="edgeStyle=orthogonalEdgeStyle;rounded=0;orthogonalLoop=1;jettySize=auto;html=1;exitX=0.5;exitY=1;exitDx=0;exitDy=0;entryX=0.5;entryY=0;entryDx=0;entryDy=0;" edge="1" parent="1" source="xrPU2MdsnwFTcZi8wqbZ-11" target="xrPU2MdsnwFTcZi8wqbZ-6">
          <mxGeometry relative="1" as="geometry" />
        </mxCell>
        <mxCell id="xrPU2MdsnwFTcZi8wqbZ-11" value="语法检测" style="rounded=1;whiteSpace=wrap;html=1;" vertex="1" parent="1">
          <mxGeometry x="-95" y="315" width="120" height="60" as="geometry" />
        </mxCell>
        <mxCell id="xrPU2MdsnwFTcZi8wqbZ-14" style="edgeStyle=orthogonalEdgeStyle;rounded=0;orthogonalLoop=1;jettySize=auto;html=1;exitX=0.5;exitY=1;exitDx=0;exitDy=0;entryX=0.5;entryY=0;entryDx=0;entryDy=0;" edge="1" parent="1" source="xrPU2MdsnwFTcZi8wqbZ-12" target="xrPU2MdsnwFTcZi8wqbZ-5">
          <mxGeometry relative="1" as="geometry" />
        </mxCell>
        <mxCell id="xrPU2MdsnwFTcZi8wqbZ-12" value="&lt;span data-copy-origin=&quot;https://shimo.zuoyebang.cc&quot; data-docs-delta=&quot;[[20,&amp;quot;query-only&amp;quot;]]&quot;&gt;&lt;p style=&quot;line-height: 100%; margin-bottom: 0pt; margin-top: 0pt; text-align: left; font-size: 11pt; color: rgb(73, 73, 73);&quot; class=&quot;ql-align-left&quot; align=&quot;left&quot;&gt;Teralink-Client&lt;/p&gt;&lt;/span&gt;" style="rounded=1;whiteSpace=wrap;html=1;fillColor=#d5e8d4;strokeColor=#82b366;" vertex="1" parent="1">
          <mxGeometry x="1100" y="460" width="120" height="60" as="geometry" />
        </mxCell>
        <mxCell id="xrPU2MdsnwFTcZi8wqbZ-35" style="edgeStyle=orthogonalEdgeStyle;rounded=0;orthogonalLoop=1;jettySize=auto;html=1;exitX=0.5;exitY=1;exitDx=0;exitDy=0;entryX=0.5;entryY=0;entryDx=0;entryDy=0;" edge="1" parent="1" source="xrPU2MdsnwFTcZi8wqbZ-13" target="xrPU2MdsnwFTcZi8wqbZ-5">
          <mxGeometry relative="1" as="geometry" />
        </mxCell>
        <mxCell id="xrPU2MdsnwFTcZi8wqbZ-13" value="&lt;span data-copy-origin=&quot;https://shimo.zuoyebang.cc&quot; data-docs-delta=&quot;[[20,&amp;quot;query-only&amp;quot;]]&quot;&gt;&lt;p style=&quot;line-height: 100%; margin-bottom: 0pt; margin-top: 0pt; text-align: left; font-size: 11pt; color: rgb(73, 73, 73);&quot; class=&quot;ql-align-left&quot; align=&quot;left&quot;&gt;TeralinkQueryOnly&lt;/p&gt;&lt;/span&gt;" style="rounded=1;whiteSpace=wrap;html=1;fillColor=#d5e8d4;strokeColor=#82b366;" vertex="1" parent="1">
          <mxGeometry x="1290" y="460" width="120" height="60" as="geometry" />
        </mxCell>
        <mxCell id="xrPU2MdsnwFTcZi8wqbZ-20" style="edgeStyle=orthogonalEdgeStyle;rounded=0;orthogonalLoop=1;jettySize=auto;html=1;exitX=0.5;exitY=1;exitDx=0;exitDy=0;" edge="1" parent="1" source="xrPU2MdsnwFTcZi8wqbZ-19">
          <mxGeometry relative="1" as="geometry">
            <mxPoint x="-40" y="605" as="targetPoint" />
          </mxGeometry>
        </mxCell>
        <mxCell id="xrPU2MdsnwFTcZi8wqbZ-19" value="其他平台用户访问-pt_mix" style="rounded=1;whiteSpace=wrap;html=1;" vertex="1" parent="1">
          <mxGeometry x="65" y="315" width="120" height="60" as="geometry" />
        </mxCell>
        <mxCell id="xrPU2MdsnwFTcZi8wqbZ-22" style="edgeStyle=orthogonalEdgeStyle;rounded=0;orthogonalLoop=1;jettySize=auto;html=1;exitX=0.5;exitY=1;exitDx=0;exitDy=0;entryX=0.5;entryY=0;entryDx=0;entryDy=0;" edge="1" parent="1" source="xrPU2MdsnwFTcZi8wqbZ-21" target="xrPU2MdsnwFTcZi8wqbZ-12">
          <mxGeometry relative="1" as="geometry" />
        </mxCell>
        <mxCell id="xrPU2MdsnwFTcZi8wqbZ-21" value="个人用户访问" style="rounded=1;whiteSpace=wrap;html=1;" vertex="1" parent="1">
          <mxGeometry x="1100" y="320" width="120" height="60" as="geometry" />
        </mxCell>
        <mxCell id="xrPU2MdsnwFTcZi8wqbZ-36" style="edgeStyle=orthogonalEdgeStyle;rounded=0;orthogonalLoop=1;jettySize=auto;html=1;exitX=0.5;exitY=1;exitDx=0;exitDy=0;" edge="1" parent="1" source="xrPU2MdsnwFTcZi8wqbZ-31" target="xrPU2MdsnwFTcZi8wqbZ-5">
          <mxGeometry relative="1" as="geometry">
            <Array as="points">
              <mxPoint x="1000" y="560" />
              <mxPoint x="1160" y="560" />
            </Array>
          </mxGeometry>
        </mxCell>
        <mxCell id="xrPU2MdsnwFTcZi8wqbZ-31" value="Presto" style="rounded=1;whiteSpace=wrap;html=1;" vertex="1" parent="1">
          <mxGeometry x="940" y="320" width="120" height="60" as="geometry" />
        </mxCell>
        <mxCell id="xrPU2MdsnwFTcZi8wqbZ-37" value="其他客户端" style="rounded=1;whiteSpace=wrap;html=1;" vertex="1" parent="1">
          <mxGeometry x="620" y="315" width="120" height="60" as="geometry" />
        </mxCell>
        <mxCell id="xrPU2MdsnwFTcZi8wqbZ-38" style="edgeStyle=orthogonalEdgeStyle;rounded=0;orthogonalLoop=1;jettySize=auto;html=1;exitX=0.5;exitY=1;exitDx=0;exitDy=0;entryX=0.417;entryY=0.167;entryDx=0;entryDy=0;entryPerimeter=0;" edge="1" parent="1" source="xrPU2MdsnwFTcZi8wqbZ-37" target="xrPU2MdsnwFTcZi8wqbZ-3">
          <mxGeometry relative="1" as="geometry" />
        </mxCell>
        <mxCell id="xrPU2MdsnwFTcZi8wqbZ-39" value="已经迁移到&lt;br&gt;&lt;span style=&quot;color: rgb(73, 73, 73); font-size: 14.6667px; text-align: left;&quot;&gt;Teralink-Client&lt;/span&gt;" style="rounded=1;whiteSpace=wrap;html=1;" vertex="1" parent="1">
          <mxGeometry x="490" y="315" width="120" height="60" as="geometry" />
        </mxCell>
        <mxCell id="xrPU2MdsnwFTcZi8wqbZ-40" style="edgeStyle=orthogonalEdgeStyle;rounded=0;orthogonalLoop=1;jettySize=auto;html=1;exitX=0.5;exitY=1;exitDx=0;exitDy=0;entryX=0.45;entryY=-0.067;entryDx=0;entryDy=0;entryPerimeter=0;" edge="1" parent="1" source="xrPU2MdsnwFTcZi8wqbZ-39" target="xrPU2MdsnwFTcZi8wqbZ-7">
          <mxGeometry relative="1" as="geometry" />
        </mxCell>
        <mxCell id="xrPU2MdsnwFTcZi8wqbZ-42" style="edgeStyle=orthogonalEdgeStyle;rounded=0;orthogonalLoop=1;jettySize=auto;html=1;exitX=0.5;exitY=1;exitDx=0;exitDy=0;entryX=0.5;entryY=0;entryDx=0;entryDy=0;" edge="1" parent="1" source="xrPU2MdsnwFTcZi8wqbZ-41" target="xrPU2MdsnwFTcZi8wqbZ-2">
          <mxGeometry relative="1" as="geometry">
            <Array as="points">
              <mxPoint x="300" y="540" />
              <mxPoint x="100" y="540" />
            </Array>
          </mxGeometry>
        </mxCell>
        <mxCell id="xrPU2MdsnwFTcZi8wqbZ-41" value="其他客户端" style="rounded=1;whiteSpace=wrap;html=1;" vertex="1" parent="1">
          <mxGeometry x="240" y="315" width="120" height="60" as="geometry" />
        </mxCell>
      </root>
    </mxGraphModel>
  </diagram>
</mxfile>
